<?xml version="1.0" standalone="no"?>
<!DOCTYPE svg PUBLIC "-//W3C//DTD SVG 20010904//EN"
 "http://www.w3.org/TR/2001/REC-SVG-20010904/DTD/svg10.dtd">
<svg version="1.0" xmlns="http://www.w3.org/2000/svg"
 width="1600.000000pt" height="1600.000000pt" viewBox="0 0 1600.000000 1600.000000"
 preserveAspectRatio="xMidYMid meet">

<g transform="translate(0.000000,1600.000000) scale(0.100000,-0.100000)"
fill="#000000" stroke="none">
<path d="M10470 13646 c-155 -33 -302 -102 -426 -200 -43 -34 -167 -162 -292
-301 -119 -133 -894 -994 -1722 -1914 -828 -920 -1505 -1677 -1505 -1683 0 -5
338 -301 750 -657 l750 -649 66 72 c36 39 805 892 1709 1896 1149 1277 1660
1851 1701 1912 58 88 102 188 135 308 15 51 19 101 19 235 0 147 -3 181 -23
255 -48 174 -135 325 -261 451 -125 124 -282 216 -448 261 -100 26 -354 34
-453 14z"/>
<path d="M1754 3065 c-201 -231 -235 -288 -237 -391 -1 -123 47 -218 146 -284
120 -81 282 -75 388 14 37 31 369 413 368 423 0 7 -352 314 -463 405 l-33 28
-169 -195z"/>
</g>
</svg>
